{
  "asset": {
    "version": "2.0",
    "generator": "THREE.GLTFExporter"
  },
  "scenes": [
    {
      "nodes": [
        0
      ]
    }
  ],
  "scene": 0,
  "nodes": [
    {
      "children": [
        13
      ],
      "matrix": [
        0.01,
        0,
        0,
        0,
        0,
        0.01,
        0,
        0,
        0,
        0,
        0.01,
        0,
        0,
        0,
        0,
        1
      ]
    },
    {
      "matrix": [
        1,
        0,
        0,
        0,
        0,
        1,
        0,
        0,
        0,
        0,
        1,
        0,
        727.7221335117677,
        0,
        0,
        1
      ],
      "name": "Text 4"
    },
    {
      "matrix": [
        1,
        0,
        0,
        0,
        0,
        1,
        0,
        0,
        0,
        0,
        1,
        0,
        -723.7974826808843,
        0,
        0,
        1
      ],
      "name": "Text 3"
    },
    {
      "matrix": [
        1,
        0,
        0,
        0,
        0,
        1,
        0,
        0,
        0,
        0,
        1,
        0,
        134.6789038208899,
        483.11510468479435,
        -189.7490623424613,
        1
      ],
      "name": "Years",
      "children": [
        1,
        2
      ]
    },
    {
      "matrix": [
        1,
        0,
        0,
        0,
        0,
        1,
        0,
        0,
        0,
        0,
        1,
        0,
        555.2525949063628,
        260.7504091913376,
        -189.7490623424613,
        1
      ],
      "name": "Signature"
    },
    {
      "matrix": [
        1,
        0,
        0,
        0,
        0,
        1,
        0,
        0,
        0,
        0,
        1,
        0,
        138.0055534822558,
        483.11510468479435,
        -189.7490623424613,
        1
      ],
      "name": "Title"
    },
    {
      "matrix": [
        0.5127065852515768,
        0,
        0,
        0,
        0,
        0.5127065852515768,
        0,
        0,
        0,
        0,
        0.5127065852515768,
        0,
        -5.684341886080802e-14,
        386.6118956782958,
        -1.4210854715202004e-14,
        1
      ],
      "name": "Sphere",
      "mesh": 0
    },
    {
      "matrix": [
        1,
        0,
        0,
        0,
        0,
        1,
        0,
        0,
        0,
        0,
        1,
        0,
        0,
        -193.72434719118283,
        0,
        1
      ],
      "name": "Chess",
      "mesh": 1
    },
    {
      "matrix": [
        0.984807753012208,
        0.17101007166283436,
        -0.030153689607045803,
        0,
        -0.17364817766693033,
        0.9698463103929542,
        -0.17101007166283436,
        0,
        0,
        0.17364817766693033,
        0.984807753012208,
        0,
        -43.538962198846384,
        260.2475217538519,
        -41.031645427912395,
        1
      ],
      "name": "Queen",
      "children": [
        6,
        7
      ]
    },
    {
      "matrix": [
        0.9622501868990583,
        -0.24026825974075933,
        -0.1278504641128632,
        0,
        0.25783416049629954,
        0.9551683228123475,
        0.14551639349920523,
        0,
        0.08715574274765817,
        -0.17298739392508947,
        0.9810602621904069,
        0,
        226.5636387055477,
        441.0459343701414,
        15.46062710538525,
        1
      ],
      "name": "King",
      "mesh": 2
    },
    {
      "matrix": [
        0.5883484054145521,
        0.39223227027636803,
        -0.7071067811865475,
        0,
        -0.554700196225229,
        0.8320502943378437,
        0,
        0,
        0.588348405414552,
        0.392232270276368,
        0.7071067811865476,
        0,
        0,
        0,
        0,
        1
      ],
      "name": "Directional Light",
      "extensions": {
        "KHR_lights_punctual": {
          "light": 0
        }
      }
    },
    {
      "matrix": [
        1,
        0,
        0,
        0,
        0,
        1,
        -5.5442389673752295e-17,
        0,
        0,
        5.5442389673752295e-17,
        1,
        0,
        152.5004107541699,
        454.8734701571851,
        1998.4267749637906,
        1
      ],
      "camera": 0
    },
    {
      "matrix": [
        1,
        0,
        0,
        0,
        0,
        1,
        0,
        0,
        0,
        0,
        1,
        0,
        0,
        1,
        0,
        1
      ],
      "name": "Default Ambient Light"
    },
    {
      "name": "Scene 1",
      "children": [
        3,
        4,
        5,
        8,
        9,
        10,
        11,
        12
      ]
    }
  ],
  "bufferViews": [
    {
      "buffer": 0,
      "byteOffset": 0,
      "byteLength": 50700,
      "target": 34962,
      "byteStride": 12
    },
    {
      "buffer": 0,
      "byteOffset": 50700,
      "byteLength": 50700,
      "target": 34962,
      "byteStride": 12
    },
    {
      "buffer": 0,
      "byteOffset": 101400,
      "byteLength": 33800,
      "target": 34962,
      "byteStride": 8
    },
    {
      "buffer": 0,
      "byteOffset": 135200,
      "byteLength": 48384,
      "target": 34963
    },
    {
      "buffer": 0,
      "byteOffset": 183584,
      "byteLength": 104832,
      "target": 34962,
      "byteStride": 12
    },
    {
      "buffer": 0,
      "byteOffset": 288416,
      "byteLength": 104832,
      "target": 34962,
      "byteStride": 12
    },
    {
      "buffer": 0,
      "byteOffset": 393248,
      "byteLength": 52224,
      "target": 34963
    },
    {
      "buffer": 0,
      "byteOffset": 445472,
      "byteLength": 91776,
      "target": 34962,
      "byteStride": 12
    },
    {
      "buffer": 0,
      "byteOffset": 537248,
      "byteLength": 91776,
      "target": 34962,
      "byteStride": 12
    },
    {
      "buffer": 0,
      "byteOffset": 629024,
      "byteLength": 45696,
      "target": 34963
    }
  ],
  "buffers": [
    {
      "byteLength": 674720,
      "uri": "data:application/octet-stream;base64,"
    }
  ],
  "accessors": [
    {
      "bufferView": 0,
      "componentType": 5126,
      "count": 4225,
      "max": [
        22.5,
        22.5,
        22.5
      ],
      "min": [
        -22.5,
        -22.5,
        -22.5
      ],
      "type": "VEC3"
    },
    {
      "bufferView": 1,
      "componentType": 5126,
      "count": 4225,
      "max": [
        1,
        1,
        1
      ],
      "min": [
        -1,
        -1,
        -1
      ],
      "type": "VEC3"
    },
    {
      "bufferView": 2,
      "componentType": 5126,
      "count": 4225,
      "max": [
        1.0078125,
        1
      ],
      "min": [
        -0.0078125,
        0
      ],
      "type": "VEC2"
    },
    {
      "bufferView": 3,
      "componentType": 5123,
      "count": 24192,
      "max": [
        4224
      ],
      "min": [
        0
      ],
      "type": "SCALAR"
    },
    {
      "bufferView": 4,
      "componentType": 5126,
      "count": 8736,
      "max": [
        127.46922302246094,
        583.2069702148438,
        127.46922302246094
      ],
      "min": [
        -127.46922302246094,
        -204.42344665527344,
        -127.46922302246094
      ],
      "type": "VEC3"
    },
    {
      "bufferView": 5,
      "componentType": 5126,
      "count": 8736,
      "max": [
        0.9987225532531738,
        1,
        0.9987225532531738
      ],
      "min": [
        -0.9987225532531738,
        -1,
        -0.9987225532531738
      ],
      "type": "VEC3"
    },
    {
      "bufferView": 6,
      "componentType": 5125,
      "count": 13056,
      "max": [
        8735
      ],
      "min": [
        0
      ],
      "type": "SCALAR"
    },
    {
      "bufferView": 7,
      "componentType": 5126,
      "count": 7648,
      "max": [
        132.862548828125,
        600.5584106445312,
        132.862548828125
      ],
      "min": [
        -132.862548828125,
        -204.74661254882812,
        -132.862548828125
      ],
      "type": "VEC3"
    },
    {
      "bufferView": 8,
      "componentType": 5126,
      "count": 7648,
      "max": [
        0.9987466931343079,
        1,
        0.9987466931343079
      ],
      "min": [
        -0.9987466931343079,
        -1,
        -0.9987466931343079
      ],
      "type": "VEC3"
    },
    {
      "bufferView": 9,
      "componentType": 5125,
      "count": 11424,
      "max": [
        7647
      ],
      "min": [
        0
      ],
      "type": "SCALAR"
    }
  ],
  "meshes": [
    {
      "primitives": [
        {
          "mode": 4,
          "attributes": {
            "POSITION": 0,
            "NORMAL": 1,
            "TEXCOORD_0": 2
          },
          "extras": {
            "parameters": {
              "width": 45,
              "widthSegments": 64,
              "heightSegments": 64,
              "phiStart": 0,
              "phiLength": 6.283185307179586,
              "thetaStart": 0,
              "thetaLength": 180,
              "height": 45,
              "depth": 45,
              "type": "SphereGeometry"
            },
            "type": "SphereGeometry"
          },
          "indices": 3
        }
      ]
    },
    {
      "primitives": [
        {
          "mode": 4,
          "attributes": {
            "POSITION": 4,
            "NORMAL": 5
          },
          "extras": {
            "type": "SubdivGeometry",
            "parameters": {
              "width": 254.93844604492188,
              "height": 787.6304168701172,
              "depth": 254.93844604492188
            }
          },
          "indices": 6
        }
      ]
    },
    {
      "primitives": [
        {
          "mode": 4,
          "attributes": {
            "POSITION": 7,
            "NORMAL": 8
          },
          "extras": {
            "type": "SubdivGeometry",
            "parameters": {
              "width": 265.72509765625,
              "height": 805.3050231933594,
              "depth": 265.72509765625
            }
          },
          "indices": 9
        }
      ]
    }
  ],
  "extensions": {
    "KHR_lights_punctual": {
      "lights": [
        {
          "name": "Directional Light",
          "color": [
            1,
            1,
            1
          ],
          "intensity": 0.7,
          "type": "directional"
        }
      ]
    }
  },
  "cameras": [
    {
      "type": "perspective",
      "perspective": {
        "aspectRatio": 1.9415501905972046,
        "yfov": 0.7853981633974483,
        "zfar": 100000,
        "znear": 70
      }
    }
  ],
  "extensionsUsed": [
    "KHR_lights_punctual"
  ]
}